<svg width="151" height="109" viewBox="0 0 151 109" fill="none" xmlns="http://www.w3.org/2000/svg">
<path d="M149.212 58.4787C149.212 85.7281 127.396 107.805 100.502 107.805C73.6077 107.805 51.7925 85.7281 51.7925 58.4787C51.7925 31.2294 73.6077 9.15259 100.502 9.15259C127.396 9.15259 149.212 31.2294 149.212 58.4787Z" fill="white" stroke="#ED8A8A" stroke-width="1.23315"/>
<mask id="mask0_1037_10322" style="mask-type:alpha" maskUnits="userSpaceOnUse" x="0" y="0" width="151" height="109">
<path d="M149.828 58.4787C149.828 86.0613 127.744 108.421 100.502 108.421C91.7851 108.421 80.7716 106.571 68.44 96.7061C38.1933 88.1685 0 77.2354 0 58.4787C0 30.8961 73.2599 1.13659 100.502 1.13659C114.683 -1.32987 133.139 2.70655 141.813 10.3853C152.153 19.5401 149.828 43.4782 149.828 58.4787Z" fill="#D9D9D9"/>
</mask>
<g mask="url(#mask0_1037_10322)">
<mask id="mask1_1037_10322" style="mask-type:luminance" maskUnits="userSpaceOnUse" x="26" y="4" width="117" height="156">
<path d="M142.429 4.8363H26.5128V159.392H142.429V4.8363Z" fill="white"/>
</mask>
<g mask="url(#mask1_1037_10322)">
<path d="M111.161 116.04C111.601 113.72 112.023 111.691 112.349 110.067C112.349 110.067 119.859 93.9642 119.929 70.8185L102.565 77.9777C103.535 82.8392 105.467 99.3486 104.989 109.408C101.01 115.725 97.5054 121.843 97.6503 125.63C100.846 123.753 105.937 120.24 105.937 120.24C107.663 118.889 109.525 117.381 111.161 116.04Z" fill="#C72418"/>
<path d="M111.161 116.04C111.6 113.72 112.023 111.691 112.348 110.067C112.348 110.067 119.858 93.9642 119.928 70.8185L114.236 75.9972C115.207 80.8587 113.184 97.5787 110.683 110.19C109.053 115.686 108.46 119.812 108.46 119.812C110.188 118.461 109.524 117.381 111.161 116.04Z" fill="#9E1D13"/>
<path d="M104.986 109.409C101.008 115.725 97.5027 121.843 97.6476 125.63C98.7219 125 101.15 123.419 102.193 122.746C104.433 116.752 107.765 109.852 107.765 109.852L107.743 81.5538L103.089 81.1471C104.09 87.9746 105.389 100.961 104.986 109.409Z" fill="#F54538"/>
<path d="M138.758 17.5641C141.278 22.0019 143.33 28.1709 142.024 35.4099C141.012 38.9593 139.489 41.4408 139.489 41.4408C139.489 41.4408 120.759 39.9543 115.823 43.9685C107.033 34.5626 110.587 28.1782 110.587 28.1782C111.581 27.3961 113.22 26.5342 115.043 25.9701C117.705 26.5342 121.295 28.2676 122.806 30.0278C123.653 29.4541 124.583 29.0353 125.536 28.7906C128.667 29.0133 131.079 30.6889 132.764 32.1876C133.073 32.4635 133.445 33.0131 133.638 33.5676C134.934 31.6863 135.76 30.4153 136.245 27.8271C136.46 24.8637 136.066 21.2514 135.586 20.0021L138.758 17.5641Z" fill="#C72418"/>
<path d="M138.758 17.5641C141.278 22.0019 143.33 28.1709 142.024 35.4099C141.012 38.9593 139.376 40.0755 139.376 40.0755C139.376 40.0755 120.921 38.1459 115.984 42.1599C107.195 32.754 113.095 31.2504 113.095 31.2504C114.09 30.4685 115.705 29.5557 117.529 28.9916C119.593 29.7035 122.039 30.9889 123.55 32.7516C124.397 32.1778 125.86 31.4659 126.813 31.2238C128.848 31.8219 130.323 32.5532 131.55 33.5772C131.81 34.0298 133.795 35.6812 133.985 36.2356C135.634 35.9837 137.167 34.9404 137.997 34.1172C138.881 33.2407 139.231 31.9163 139.465 30.6719C139.68 27.7085 138.012 20.4767 137.532 19.2249L138.758 17.5641Z" fill="#9E1D13"/>
<path d="M109.088 27.3043L110.606 26.4835C110.606 26.4835 114.053 27.0694 114.811 30.1757C115.572 33.282 112.24 30.4106 112.066 30.4106C111.893 30.4082 109.088 27.3043 109.088 27.3043Z" fill="#450808"/>
<path d="M82.9927 32.9576C81.8845 34.0059 83.6685 36.2285 83.6685 36.2285L106.372 31.9091C106.372 31.9091 119.516 32.0618 114.041 29.8416C113.445 29.2437 111.719 28.0476 110.28 27.7982C106.968 25.3069 105.457 21.6414 105.264 18.3341C105.018 14.1384 98.7413 5.37646 95.7891 14.0755C95.5332 18.9104 95.3039 20.6318 94.1306 24.5636C91.3257 26.4012 89.6938 26.7765 87.3813 28.2897L82.9927 32.9576Z" fill="#FFD5BE"/>
<path d="M82.9927 32.9574C81.8845 34.0057 83.6685 36.2283 83.6685 36.2283L106.372 31.9091C106.372 31.9091 119.516 32.0616 114.041 29.8416C113.445 29.2434 111.719 28.0474 110.28 27.7981C106.968 25.3068 105.457 21.6412 105.264 18.334C105.018 14.1383 101.472 6.95246 98.5192 15.6539C98.2925 19.9319 98.2345 23.319 98.2248 26.1614C98.512 26.4495 99.9362 27.815 100.429 28.2313C99.941 28.1394 98.8185 27.8586 98.2225 27.6407C96.4408 28.0765 93.1989 28.5776 91.2798 29.0765C89.8097 29.4589 90.2803 30.7325 89.2834 31.3836L82.9927 32.9574Z" fill="#CF8E72"/>
<path d="M41.8054 66.7124C44.7409 68.5717 37.9431 75.6969 41.9601 80.9653C52.6177 92.8941 71.152 83.4445 75.6301 94.7511C78.4109 102.031 66.3628 108.539 66.3628 108.539C66.3628 108.539 68.0621 110.399 68.5258 110.244C68.9892 110.089 105.539 106.493 95.5983 78.905C105.947 69.3004 96.4505 50.767 96.4505 50.767C96.4505 50.767 91.2002 37.9086 91.0456 36.9789C90.8912 36.0493 83.3235 29.3887 82.7054 29.0789C82.0873 28.7691 83.5166 55.0934 77.8003 59.4322C72.0863 63.7707 58.9495 63.6182 58.9495 63.6182L41.8054 66.7124Z" fill="#540A0A"/>
<path d="M96.4506 50.7648C96.4506 50.7648 93.8072 44.2931 92.2164 40.1992C91.6442 43.0657 90.8284 45.8886 89.6912 48.6293C86.4688 56.389 87.7578 65.4438 82.3843 71.6951C74.324 78.2707 62.3966 79.6001 52.294 77.7309C51.4346 77.3 50.5752 76.007 49.7161 75.1451C49.0713 74.7143 48.2122 74.4988 47.7823 74.0678C46.0033 72.5377 44.1493 71.16 42.1289 70.5112C41.2187 73.5304 39.4106 77.6219 41.9599 80.9654C49.7233 89.6548 61.6675 87.0012 69.3127 89.2915C75.963 90.6669 93.1312 81.8638 98.3961 76.5832C100.545 79.1691 95.9218 90.0204 93.7734 93.2525C92.2695 95.6227 90.5483 97.7799 88.185 99.5038C84.9623 102.09 81.5224 103.385 77.8678 104.031C75.5865 104.404 73.3463 104.789 71.1279 105.198C68.7308 107.258 66.3603 108.542 66.3603 108.542C66.3603 108.542 68.0598 110.401 68.5233 110.246C68.9867 110.091 111.709 102.796 101.771 75.2081C112.119 65.6011 96.4506 50.7648 96.4506 50.7648Z" fill="#450808"/>
<path d="M98.8908 21.1716L103.306 24.5417L104.863 24.8105L106.475 26.8587L107.765 25.4036C107.765 25.4036 106.529 23.7331 106.475 21.847C106.422 19.961 98.8908 21.1716 98.8908 21.1716Z" fill="#AD775F"/>
<path d="M74.505 36.8529C74.505 36.8529 76.0233 50.6798 76.6678 59.1173C66.7827 59.7372 46.9011 52.9265 41.3418 52.9265C32.3812 56.333 26.5128 71.6706 26.5128 71.6706C26.5128 71.6706 34.5442 67.3344 43.1934 67.9519C51.8426 68.5716 75.2944 74.9247 85.6986 65.8843C87.748 57.2893 85.071 40.7339 83.8616 34.1753C81.2038 33.7637 78.5676 33.3229 76.2792 32.1462C74.9515 34.3471 74.505 36.8529 74.505 36.8529Z" fill="#9E1D13"/>
<path d="M92.588 30.7807C90.0436 26.9507 87.8252 26.7764 87.8252 26.7764C87.8252 26.7764 83.4777 28.3016 82.7052 29.0764C79.5479 28.2822 77.5249 30.0787 76.2793 32.1463C78.5654 33.3255 81.2039 33.7661 83.8616 34.1751C83.5405 32.4393 83.3233 31.4006 83.3233 31.4006L92.588 30.7807Z" fill="#781F1F"/>
<path d="M92.5882 30.7808C90.587 28.9238 88.8684 28.0741 88.8684 28.0741C88.8684 28.0741 85.3198 29.3088 84.5473 30.0837C81.3897 29.2895 77.5228 30.0811 76.2771 32.1464C78.563 33.3254 81.2015 33.7662 83.8592 34.1752C83.5384 32.4394 83.3209 31.4007 83.3209 31.4007L92.5882 30.7808Z" fill="#2E0505"/>
<path d="M58.6382 107.454C75.9366 109.779 103.726 109.609 107.692 52.5924C117.423 33.8485 108.928 52.1276 108.928 52.1276C108.928 52.1276 112.697 106.215 67.7509 113.96C60.3375 111.016 58.6382 107.454 58.6382 107.454Z" fill="#9E1D13"/>
<path d="M94.563 75.2053C92.2261 83.3379 88.6487 93.5257 88.0645 107.462C82.0681 111.996 79.6953 116.148 79.0339 120.502C83.519 117.291 89.9136 115.64 89.9136 115.64C89.9136 115.64 91.181 116.918 92.12 119.18C92.7403 114.822 94.6571 110.926 94.6571 110.926C94.6571 110.926 104.822 92.7534 109.976 83.8609C108.629 81.0306 102.741 73.6778 94.563 75.2053Z" fill="#C72418"/>
<path d="M89.911 115.64C89.911 115.64 91.1785 116.918 92.1174 119.18C92.7378 114.822 94.6546 110.926 94.6546 110.926C94.6546 110.926 104.82 92.7535 109.974 83.8608C109.602 83.0787 107.589 80.0886 105.694 78.6071C105.534 83.6598 102.191 95.31 99.2748 100.472C100.161 97.845 100.376 95.2593 100.699 92.0247C98.6569 99.3534 95.6756 104.362 94.1717 106.883C91.2629 114.231 89.911 115.64 89.911 115.64Z" fill="#9E1D13"/>
<path d="M119.791 65.7414C119.842 65.7631 119.866 63.6617 119.914 63.6836C119.851 57.3305 119.907 48.6049 119.907 48.6049C119.907 48.6049 122.021 44.8328 122.569 42.3536C119.018 31.517 114.099 29.8439 114.099 29.8439C114.099 29.8439 95.4653 28.9238 82.1087 31.4635C80.9549 32.4854 79.4438 41.0076 84.2935 47.312C87.3447 52.8951 90.9367 55.0547 95.2458 57.9382C96.554 60.6523 96.8197 63.5043 96.4647 66.6615C98.0941 65.2789 114.944 63.6495 119.791 65.7414Z" fill="#C72418"/>
<path d="M119.791 65.7414C119.842 65.7244 119.866 63.6617 119.914 63.6834C119.852 57.3305 119.907 48.6049 119.907 48.6049C119.907 48.6049 122.022 44.8328 122.57 42.3536C119.019 31.5168 114.099 29.844 114.099 29.844C114.099 29.844 112.627 29.7471 111.171 29.7592C111.482 30.1998 112.045 31.633 112.508 32.5022C119.007 33.0712 121.72 41.9978 116.796 44.8473C116.67 45.4816 116.585 46.5955 116.062 46.5955C115.47 44.3972 114.061 41.1989 113.513 41.1963C113.348 41.1963 114.28 46.5833 114.102 46.5833C111.975 46.697 110.239 46.743 107.956 46.927C110.01 47.4306 112.33 47.714 114.263 48.0383C114.855 48.0383 115.775 48.0383 117.416 48.0383C117.73 50.4281 116.557 53.4447 114.782 55.0984C114.763 54.2 114.514 51.6314 114.285 50.4183C114.036 52.1277 113.264 53.8418 112.274 55.4203C113.133 58.546 112.95 63.5819 112.598 66.7365C114.23 65.3564 114.536 67.5452 119.791 65.7414Z" fill="#9E1D13"/>
<path d="M100.59 65.5647C100.615 64.698 100.525 60.5603 101.213 57.7276C100.81 57.9214 100.557 58.0713 99.4461 58.3692C96.4142 55.2024 92.9091 47.1765 92.9091 47.1765C92.9091 47.1765 96.0377 47.7285 99.6997 47.0967C95.7841 46.4624 89.8482 42.0293 89.8482 42.0293C89.8482 42.0293 85.3075 44.7627 83.5695 46.2758C83.7939 46.627 84.0329 46.9732 84.2937 47.312C87.3449 52.8951 90.9369 55.0547 95.2458 57.9382C96.5542 60.6523 96.8197 63.5043 96.465 66.6615C96.9066 66.2861 98.4636 65.8938 100.59 65.5647Z" fill="#F54538"/>
<path d="M97.5996 66.6324C97.6239 65.7658 97.4524 60.7322 96.3155 57.9456C91.4562 54.9556 88.7041 51.7258 87.1592 49.2055C86.942 48.852 87.7965 48.2611 87.6226 47.9368C87.4175 47.5493 86.1962 47.4332 86.0464 47.0992C85.3947 45.6295 85.2498 44.7021 85.2498 44.7021C85.2498 44.7021 85.3052 44.7603 83.5672 46.276C83.7918 46.6269 84.0309 46.9731 84.2914 47.3121C87.3428 52.8952 90.9346 55.0548 95.2437 57.9383C96.5519 60.6524 96.8176 63.5044 96.4627 66.6616C96.9069 66.2862 97.211 66.8068 97.5996 66.6324Z" fill="#FF8980"/>
<path d="M78.0152 83.0618C79.2729 84.1514 81.1607 84.626 81.1607 84.626L81.6411 86.1342L82.5389 87.8532L81.518 89.841L81.6144 90.7972L80.1515 92.5865L77.6772 92.1338L75.1836 92.2814C75.1836 92.2814 74.2567 91.8602 73.7256 91.1605C73.086 88.749 73.0811 84.9769 73.0811 84.9769L78.0152 83.0618Z" fill="url(#paint0_radial_1037_10322)"/>
<path d="M78.015 83.0618C79.2727 84.1514 81.1605 84.626 81.1605 84.626L81.6409 86.1342L82.5388 87.8532L81.5178 89.841L81.6142 90.7972L80.1513 92.5865L77.677 92.1338L79.7748 92.1483L80.6848 90.7223C80.6848 90.7223 80.5037 88.7684 79.9728 88.0687C79.8013 87.3884 80.5255 86.0688 80.0862 85.8412C78.7657 85.1562 75.9607 85.0133 75.9607 85.0133L78.015 83.0618Z" fill="#AD775F"/>
<path d="M73.0807 84.9745C71.4345 77.8155 69.1822 67.0197 69.9331 61.2454C71.1593 58.8194 72.9119 55.0643 72.9119 55.0643C72.9119 55.0643 73.945 49.3941 73.1412 41.9519C71.6373 32.3545 77.1169 27.3962 85.1265 31.0714C85.1265 31.0714 92.3129 36.9814 85.1483 47.4937C81.1121 55.0935 77.0589 71.9951 78.0173 83.0594C78.2951 84.6259 73.6577 86.1561 73.0807 84.9745Z" fill="#C72418"/>
<path d="M79.3955 60.3789C79.3955 60.3789 81.9738 51.0019 83.1855 43.177C85.1988 42.9179 87.241 42.5959 89.8192 42.0562C88.7015 43.2352 86.6037 45.356 85.1482 47.4962C81.112 55.096 77.0589 71.9976 78.0173 83.0621C78.0704 83.3574 77.9473 83.6504 77.7108 83.9264C76.2792 69.4313 79.3955 60.3789 79.3955 60.3789Z" fill="#9E1D13"/>
<path d="M74.8407 58.282C75.2511 58.6936 75.6952 59.2771 76.0959 59.6791C76.5377 53.9241 76.3228 48.5541 75.9607 41.6251C75.5021 41.1215 74.5968 39.4485 74.2734 38.5793C74.5076 37.4026 75.8907 32.0931 78.7659 30.0836C77.7688 30.2846 76.767 30.42 75.7411 30.9019C73.8533 32.616 71.9078 34.795 71.6567 38.0684C72.0742 39.3443 72.5572 40.4918 72.9095 41.8212C73.7133 49.2634 72.9095 55.0644 72.9095 55.0644C72.9095 55.0644 71.1569 58.8171 69.9307 61.2454C69.1798 67.0198 71.4321 77.8155 73.0785 84.9746C73.1534 85.1247 73.6143 85.9068 75.9607 85.0327C75.8086 84.3113 73.9185 73.8036 73.4622 69.3101C73.0809 65.4922 73.542 61.887 74.8407 58.282Z" fill="#F54538"/>
<path d="M70.8935 61.7512C71.5382 60.243 73.1989 56.3158 73.5587 55.4709C74.0003 49.7159 74.0849 49.1157 73.7228 42.1864C73.561 41.4311 72.7113 39.0098 72.3879 38.1409C72.8611 35.6857 73.7518 33.3711 75.7432 30.8992C73.8556 32.6133 71.9099 34.7925 71.6588 38.0657C72.0766 39.3416 72.5592 40.4893 72.9116 41.8184C73.7156 49.2609 72.9116 55.0619 72.9116 55.0619C72.9116 55.0619 71.1592 58.8144 69.9328 61.2429C69.1821 67.017 71.4344 77.8128 73.0806 84.972C73.1193 85.0493 73.2617 85.2989 73.7205 85.3981C72.9503 82.212 70.3601 69.9685 70.8935 61.7512Z" fill="#FF8980"/>
<path d="M94.563 75.2057C92.2261 83.3381 88.6487 93.5261 88.0645 107.462C82.0681 111.997 79.6953 116.149 79.0339 120.502C80.3591 119.555 81.8486 118.744 83.292 118.071C84.3904 115.512 86.2926 111.81 89.4791 107.431C91.8737 95.6082 96.6414 80.5152 98.3987 75.1187C97.1869 74.9466 95.9074 74.9538 94.563 75.2057Z" fill="#F54538"/>
<path d="M94.563 75.2056C92.2261 83.338 88.6487 93.526 88.0645 107.462C82.0681 111.996 79.6953 116.149 79.0339 120.502C79.6664 120.25 79.9874 120.843 80.4727 120.197C80.9553 116.531 83.589 111.897 88.1853 107.517C90.0367 92.1749 93.7977 80.2123 96.1246 74.501C94.9128 74.3315 95.9074 74.9537 94.563 75.2056Z" fill="#FF8980"/>
<path d="M95.4194 18.8255C94.3453 13.2545 95.7887 8.27916 95.7887 8.27916C95.7887 8.27916 97.3193 7.71263 102.367 6.3883C103.342 5.7225 104.112 5.31818 105.083 4.85817C106.533 4.68143 109.659 5.67892 111.021 6.59409C110.985 8.40265 109.358 11.5549 109.358 11.5549L108.503 11.8115L108.124 12.2425L99.1732 15.741L96.6507 15.1865L95.4194 18.8255Z" fill="#630000"/>
<path d="M95.4196 18.8255C95.6345 16.6102 96.279 15.2471 97.0323 13.7848C97.2013 13.4555 98.0558 13.8332 98.2489 13.533C98.6423 12.9253 99.364 12.6154 99.6466 12.0634C100.46 10.48 100.446 8.99102 100.446 8.99102C100.446 8.99102 100.675 8.84817 102.239 8.25742C103.214 7.27931 104.974 5.96223 105.689 5.24801C107.139 5.07127 109.657 5.69833 111.019 6.61593C111.019 8.53586 109.356 11.5598 109.356 11.5598L108.501 11.8164L108.122 12.2474L99.1735 15.741L96.6509 15.1866L95.4196 18.8255Z" fill="#380000"/>
<path d="M98.9534 14.1989C98.9534 14.1989 97.5993 11.4849 96.6144 12.5937C95.6294 13.7026 96.3054 15.6782 98.3984 17.3439C98.3984 18.8861 98.8908 21.1692 98.8908 21.1692C98.8908 21.1692 100.626 21.9464 103.033 22.634C104.807 22.479 106.031 22.2636 107.803 22.6146C106.912 20.0531 108.298 16.4021 108.484 13.7098C108.506 13.3903 109.063 12.7705 109.087 12.4485C108.87 10.7997 108.51 9.41723 108.51 9.41723C108.51 9.41723 106.294 8.427 102.857 8.74417C102.287 9.04681 101.534 9.59156 100.692 9.92568C100.528 10.6229 100.486 11.0418 99.9359 12.0998C99.8949 12.7123 99.7887 14.3587 99.8613 15.0221C99.7092 15.0221 99.3904 15.0051 99.2865 15.0051C99.1683 14.8816 98.9534 14.1989 98.9534 14.1989Z" fill="#FFD5BE"/>
<path d="M103.553 17.7991C103.553 17.7991 102.983 18.1017 102.444 18.3487C102.444 19.8909 103.038 22.6316 103.038 22.6316C103.038 22.6316 104.523 22.8373 107.695 22.8373C108.117 20.7213 108.496 18.8256 108.496 18.8256C108.496 18.8256 108.301 16.4021 108.487 13.7098C108.508 13.3903 109.066 12.7705 109.09 12.4485C108.873 10.7997 108.513 9.41723 108.513 9.41723C108.513 9.41723 106.297 8.427 102.86 8.74417C102.799 9.43178 102.551 11.0055 102.551 12.0175C102.377 12.2911 103.837 12.5622 103.63 12.7123C103.405 12.8721 104.431 13.4532 104.163 13.613C104.084 13.659 102.705 13.2692 102.63 13.32C102.372 13.4944 101.737 13.9108 101.592 14.1892C101.735 15.1238 103.553 17.7991 103.553 17.7991Z" fill="#CF8E72"/>
<path d="M108.957 14.7991L108.692 14.327C108.692 14.327 109.1 13.2472 109.199 12.7073C109.177 12.6444 108.853 12.5403 108.829 12.4797L107.803 12.6589L107.294 13.3828L108.245 16.1356L108.957 14.7991Z" fill="#C2856B"/>
<path d="M104.737 11.9641L106.152 12.0925L106.36 12.906L106.328 13.7509L105.541 12.9253L103.427 12.8019L102.393 12.1215L103.27 11.8528L104.737 11.9641Z" fill="#FFD5BE"/>
<path d="M96.5229 13.7193C96.5229 13.7193 96.6219 13.0051 96.9938 12.9373C97.0782 12.9736 97.1579 13.0124 97.2326 13.0584C97.2931 13.0947 97.2905 12.5741 97.3485 12.6129C98.7801 13.6152 98.9175 15.3003 98.9175 15.3003L97.8966 15.9564L98.2297 15.2325L97.4813 15.0219L97.2351 14.3464L97.6357 14.0099L97.0202 13.4312L96.5229 13.7193Z" fill="#CF8E72"/>
<path d="M104.054 18.1526L105.237 18.1211L107.678 18.4431L107.511 18.569L104.054 18.1526Z" fill="#AD775F"/>
<path d="M103.038 13.0828L103.782 13.5937L105.735 13.8987L105.636 13.0344L105.404 12.9618L103.584 12.6713L103.038 13.0828Z" fill="white"/>
<path d="M103.929 17.6562L103.378 17.7434L103.289 18.431L103.55 17.9056L103.929 17.6562Z" fill="#FFD5BE"/>
<path d="M103.76 12.6613C103.731 12.7315 103.668 12.8961 103.666 12.9784C103.653 13.3271 103.904 13.62 104.226 13.6321C104.547 13.6442 104.817 13.3682 104.829 13.0196C104.832 12.9373 104.82 12.8598 104.795 12.7896C104.404 12.775 104.071 12.6734 103.76 12.6613Z" fill="#690000"/>
<path d="M103.038 13.0826L103.56 12.5839L105.672 12.8889V13.0463L103.56 12.7073L103.038 13.0826Z" fill="#690000"/>
<path d="M107.294 13.383L107.405 13.6494L107.644 14.2062L108.479 14.3152L108.588 14.1069L108.694 13.4775L107.364 13.2523L107.294 13.383Z" fill="#C7C7C7"/>
<path d="M107.487 13.2983C107.468 13.3661 107.422 13.5211 107.422 13.5986C107.422 13.9254 107.627 14.1917 107.883 14.1917C108.139 14.1917 108.344 13.9254 108.344 13.5986C108.344 13.5211 108.332 13.4509 108.31 13.3831C108.001 13.3831 107.733 13.2983 107.487 13.2983Z" fill="#690000"/>
<path d="M107.412 13.1698L108.72 13.3732V13.5306L107.34 13.303L107.412 13.1698Z" fill="#690000"/>
<path d="M135.583 20.0045C135.088 19.5082 134.178 19.3799 133.268 19.3194C132.766 18.9344 132.223 18.38 131.644 17.6125C131.002 17.7868 130.594 17.8449 130.594 17.8449L128.846 16.2664L129.37 15.2737L128.703 14.4796C128.703 14.4796 129.037 12.5863 130.33 11.6203C130.999 11.2281 132.206 10.8625 133.572 10.8407C134.779 11.9592 136.894 14.2883 138.753 17.5617C138.584 18.9199 135.583 20.0045 135.583 20.0045Z" fill="#FFD5BE"/>
<path d="M135.583 20.0046C135.089 19.5083 134.178 19.38 133.268 19.3194C132.766 18.9345 132.223 18.3801 131.644 17.6126C131.002 17.7869 130.594 17.845 130.594 17.845L131.272 17.1163L132.889 18.7021C132.889 18.7021 134.372 18.6875 134.582 18.368C134.804 18.0266 135.39 18.4575 135.752 17.9757C136.257 17.3027 136.334 16.5037 136.875 16.0994C137.544 15.7072 136.436 14.2884 135.924 13.395C136.836 14.5257 137.828 15.9275 138.76 17.5642C137.582 20.1765 135.583 20.0046 135.583 20.0046Z" fill="#CF8E72"/>
<path d="M107.994 11.7196C107.994 11.7196 108.228 11.9569 108.187 11.9569C108.146 11.9569 107.569 12.6251 107.569 13.5306C107.569 14.4337 108.704 16.2325 108.704 16.2325L108.632 16.5061L107.263 16.9637L106.319 13.993L106.507 12.1603L106.548 11.6494L107.994 11.7196Z" fill="#CF8E72"/>
<path d="M106.545 12.4605C106.601 12.6397 106.649 13.0005 106.741 13.6396C106.871 14.533 107.762 16.0317 107.762 16.0317L107.924 16.327L106.746 16.758L106.15 16.16L106.316 13.9931L105.966 12.2886L105.812 12.0635C105.814 12.0611 106.533 12.4218 106.545 12.4605Z" fill="#FFD5BE"/>
<path d="M102.242 12.0949L103.316 11.9787L106.294 12.5815L106.507 12.0925L103.282 11.7196L102.242 12.0949Z" fill="#690000"/>
<path d="M107.446 14.1527L108.585 14.3319L108.638 14.666L108.267 15.7143L107.446 14.1527Z" fill="#CF8E72"/>
<path d="M107.801 12.659L109.196 12.7147L109.051 12.4677L107.878 12.4023L107.801 12.659Z" fill="#690000"/>
<path d="M119.726 65.7416C114.893 63.6497 98.0847 65.2791 96.4626 66.6591C96.1705 69.2667 95.4585 72.0872 94.5629 75.2056C102.72 73.6778 108.593 81.0306 109.935 83.8609C109.962 83.8175 110.118 83.7496 110.145 83.7036C111.079 83.2026 112.612 82.8127 114.307 81.4931C116.375 79.2827 118.816 74.9369 119.907 71.3464C119.907 70.0268 119.893 68.0342 119.871 65.8069C119.82 65.7876 119.774 65.7633 119.726 65.7416Z" fill="#540A0A"/>
<path d="M119.726 65.7417C119.306 65.5601 118.794 65.4053 118.212 65.2769C118.084 68.4413 117.674 70.2957 117.109 72.0995C115.825 75.6318 115.125 78.651 112.947 81.2199C111.731 82.118 111.132 83.1275 109.935 83.8611C109.961 83.8176 110.118 83.7497 110.145 83.7037C111.079 83.2027 112.612 82.8128 114.306 81.4932C116.375 79.2828 118.816 74.937 119.907 71.3465C119.907 70.027 119.892 68.0346 119.871 65.8071C119.82 65.7877 119.774 65.7636 119.726 65.7417Z" fill="#3B0707"/>
<path d="M100.41 65.5887C98.372 65.9133 96.8899 66.2957 96.4627 66.659C96.1705 69.2666 95.4586 72.0871 94.563 75.2055C95.9051 74.9536 97.1869 74.944 98.3964 75.1135C99.147 72.5568 99.9703 68.6056 100.41 65.5887Z" fill="#781F1F"/>
<path d="M116.817 37.2571C117.983 39.4919 117.508 42.0509 115.755 42.9687C114.002 43.8885 111.637 42.8209 110.471 40.5861C109.305 38.3516 109.781 35.7926 111.533 34.8748C113.288 33.955 115.651 35.02 116.817 37.2571Z" fill="#41E885"/>
<path d="M117.833 36.6908C119.436 39.763 118.782 43.2786 116.373 44.5447C113.964 45.8087 110.712 44.3413 109.109 41.2691C107.506 38.1967 108.16 34.6788 110.567 33.4151C112.976 32.1511 116.228 33.6184 117.833 36.6908Z" fill="#FF8980"/>
<path d="M117.305 36.9691C118.715 39.6684 118.14 42.7602 116.023 43.8692C113.906 44.9805 111.048 43.6899 109.64 40.9905C108.231 38.2884 108.805 35.1991 110.922 34.0904C113.037 32.9791 115.895 34.2671 117.305 36.9691Z" fill="white"/>
<path d="M115.538 43.0886C117.347 42.2336 117.946 39.6923 116.875 37.4123C115.804 35.1323 113.469 33.9768 111.66 34.8318C109.851 35.6865 109.252 38.2278 110.323 40.5078C111.395 42.7879 113.729 43.9433 115.538 43.0886Z" fill="#540A0A"/>
<path d="M113.349 40.2935C113.1 40.378 112.856 40.2864 112.71 39.8587C112.583 39.4845 112.431 38.5044 112.995 38.3125C113.101 38.2758 113.268 38.2639 113.423 38.3146L113.246 37.3137L113.251 37.3118C113.079 37.3025 112.889 37.3324 112.681 37.4034C111.354 37.8572 111.586 39.6099 111.851 40.3882C112.151 41.2675 112.726 41.5262 113.489 41.267C113.61 41.2245 113.767 41.14 113.906 41.0406L113.73 40.0502C113.621 40.158 113.503 40.2393 113.349 40.2935Z" fill="#F54538"/>
<path d="M115.437 37.4898L115.282 36.6115L113.624 37.1788L113.619 37.1809L113.796 38.1815L114.106 39.9201L114.282 40.9105L114.281 40.9131L115.15 40.6147L114.898 39.1866L115.591 38.9503L115.435 38.0846L114.741 38.3235L114.645 37.761L115.437 37.4898Z" fill="#F54538"/>
</g>
</g>
<defs>
<radialGradient id="paint0_radial_1037_10322" cx="0" cy="0" r="1" gradientUnits="userSpaceOnUse" gradientTransform="translate(77.1106 90.7265) rotate(8.88421) scale(4.70261 4.71584)">
<stop stop-color="#FFBC9E"/>
<stop offset="1" stop-color="#FFCDB2"/>
</radialGradient>
</defs>
</svg>
